<svg xmlns="http://www.w3.org/2000/svg" width="108.346" height="95.322" viewBox="0 0 108.346 95.322"><g transform="translate(-88.41 -105.825)"><g transform="translate(113.338 105.825)"><path d="M196.265,110.242a24.529,24.529,0,0,1,24.759,23.816h.129a29.09,29.09,0,0,0-58.154,0h8.548C171.678,120.883,182.693,110.242,196.265,110.242Z" transform="translate(-162.998 -105.825)" fill="#fff"/><path d="M187.885,219.248a24.529,24.529,0,0,1-24.759-23.816H163a29.09,29.09,0,0,0,58.154,0H212.6C212.472,208.607,201.457,219.248,187.885,219.248Z" transform="translate(-162.998 -165.484)" fill="#fff"/><g transform="translate(10.842 11.64)"><path d="M217.832,143.285c8.363,0,15.038,6.289,15.257,14.182h.079c-.135-9.39-8.03-16.812-17.905-16.812s-17.735,7.573-17.932,16.812H202.6C202.68,149.621,209.468,143.285,217.832,143.285Z" transform="translate(-196.699 -140.654)" fill="#fff"/><path d="M210.789,207.89a15.064,15.064,0,0,1-15.269-14.552h-.08a17.946,17.946,0,0,0,35.866,0h-5.272A14.986,14.986,0,0,1,210.789,207.89Z" transform="translate(-195.44 -175.73)" fill="#fff"/></g></g><path d="M12.311-31.644C11.954-34.1,9.964-35.4,7.552-35.4c-3.56,0-5.47,2.735-5.47,6.085,0,3.366,1.748,6.02,5.341,6.02a4.7,4.7,0,0,0,5-4.629H10.886a3.269,3.269,0,0,1-3.334,3.334c-2.767,0-3.933-2.2-3.933-4.839,0-2.411,1.165-4.677,3.917-4.677a3.044,3.044,0,0,1,3.237,2.46Zm1.877,8.076h1.376V-35.123H14.188Zm4.968,0v-8.367H17.781v8.367Zm-1.683-9.516h1.036l2.12-2.314H18.865Zm3.819,9.516h1.376v-4.726a2.352,2.352,0,0,1,2.476-2.622,1.576,1.576,0,0,1,1.7,1.683v5.664h1.376v-5.5c0-1.8-.68-3.059-2.881-3.059a2.913,2.913,0,0,0-2.719,1.521h-.032v-1.327H21.293Zm9.079,0h1.376v-8.367H30.372Zm1.376-11.555H30.372v1.683h1.376Zm9.241,5.875c-.194-1.991-1.716-2.881-3.609-2.881-2.654,0-3.949,1.974-3.949,4.483,0,2.492,1.359,4.273,3.917,4.273a3.478,3.478,0,0,0,3.69-3.253H39.629a2.163,2.163,0,0,1-2.3,2.039c-1.748,0-2.444-1.521-2.444-3.059,0-1.7.615-3.269,2.606-3.269a1.948,1.948,0,0,1,2.072,1.667Zm6.765,2.767c0,.761-.744,1.894-2.557,1.894-.842,0-1.618-.324-1.618-1.23,0-1.02.777-1.343,1.683-1.505a7.085,7.085,0,0,0,2.492-.566Zm2.233,1.813a1.181,1.181,0,0,1-.421.081c-.437,0-.437-.291-.437-.939v-4.3c0-1.958-1.635-2.3-3.14-2.3-1.861,0-3.463.728-3.544,2.8h1.376c.065-1.23.922-1.586,2.088-1.586.874,0,1.861.194,1.861,1.392,0,1.036-1.295.939-2.816,1.23-1.424.275-2.832.68-2.832,2.573,0,1.667,1.246,2.347,2.767,2.347a3.713,3.713,0,0,0,2.945-1.295c0,.906.453,1.295,1.165,1.295a1.855,1.855,0,0,0,.987-.227ZM63.241-35.123H61.866v4.3h-.032a3.2,3.2,0,0,0-2.7-1.311c-2.557,0-3.819,1.991-3.819,4.353s1.279,4.4,3.852,4.4a2.816,2.816,0,0,0,2.67-1.327h.032v1.133h1.376Zm-6.474,7.445c0-1.635.631-3.237,2.509-3.237,1.894,0,2.638,1.521,2.638,3.172,0,1.57-.712,3.156-2.557,3.156C57.577-24.587,56.768-26.109,56.768-27.678Zm14.371,1.457a2.016,2.016,0,0,1-2.169,1.635,2.465,2.465,0,0,1-2.606-2.751h6.263c.081-2.023-.825-4.79-3.787-4.79-2.282,0-3.933,1.845-3.933,4.353.081,2.557,1.343,4.4,4.014,4.4A3.373,3.373,0,0,0,72.5-26.222Zm-4.774-2.33a2.383,2.383,0,0,1,2.4-2.363,2.408,2.408,0,0,1,2.411,2.363Zm11.766-.793c0,3.14,1.861,6.053,5.535,6.053S89.2-26.206,89.2-29.345,87.339-35.4,83.666-35.4,78.131-32.485,78.131-29.345Zm1.537,0c0-2.33,1.181-4.758,4-4.758s4,2.428,4,4.758-1.181,4.758-4,4.758S79.668-27.015,79.668-29.345Zm12.64-2.589H90.932v9.209c0,.858-.178,1.149-.777,1.149a3.327,3.327,0,0,1-.566-.032v1.181a3.642,3.642,0,0,0,.712.065A1.857,1.857,0,0,0,92.308-22.5Zm0-3.188H90.932v1.683h1.376Zm1.683,7.38c0,2.444,1.408,4.37,4.062,4.37s4.062-1.926,4.062-4.37c0-2.46-1.408-4.386-4.062-4.386S93.991-30.2,93.991-27.743Zm1.457,0c0-2.039,1.165-3.172,2.606-3.172s2.606,1.133,2.606,3.172c0,2.023-1.165,3.156-2.606,3.156S95.448-25.72,95.448-27.743Zm7.752,1.537c.081,2.072,1.667,2.832,3.544,2.832,1.7,0,3.56-.647,3.56-2.638,0-1.618-1.359-2.072-2.735-2.379-1.279-.307-2.735-.469-2.735-1.457,0-.842.955-1.068,1.78-1.068.906,0,1.845.34,1.942,1.408h1.376c-.113-2.039-1.586-2.622-3.431-2.622-1.457,0-3.124.7-3.124,2.379,0,1.6,1.376,2.055,2.735,2.363,1.376.307,2.735.486,2.735,1.554,0,1.052-1.165,1.246-2.023,1.246-1.133,0-2.2-.388-2.25-1.618Z" transform="translate(86.328 205.461)" fill="#fff"/><path d="M1.976-33.91c.06,3.543,2.7,5.1,5.964,5.1,2.842,0,5.684-1.281,5.684-4.483a3.782,3.782,0,0,0-2.782-3.643c-.741-.22-3.9-1.041-4.123-1.1-1.021-.28-1.7-.841-1.7-1.841,0-1.441,1.461-1.861,2.622-1.861,1.721,0,2.962.681,3.082,2.522h2.5c0-2.982-2.5-4.563-5.484-4.563-2.582,0-5.224,1.341-5.224,4.2,0,1.481.721,2.962,3.162,3.623,1.961.54,3.262.8,4.263,1.181a1.7,1.7,0,0,1,1.181,1.761c0,1.081-.821,2.162-3.022,2.162-2,0-3.623-.861-3.623-3.062Zm19.895,1.281c0,1.441-1.561,1.961-2.562,1.961-.8,0-2.1-.3-2.1-1.321,0-1.2.881-1.561,1.861-1.721a8.145,8.145,0,0,0,2.8-.62Zm2.282-4.143c0-2.182-2.122-3-4.143-3-2.282,0-4.543.781-4.7,3.443h2.282c.1-1.121,1-1.641,2.282-1.641.921,0,2.142.22,2.142,1.4,0,1.341-1.461,1.161-3.1,1.461-1.921.22-3.983.64-3.983,3.222,0,2.021,1.681,3.022,3.543,3.022a5.307,5.307,0,0,0,3.583-1.261c.18.941.841,1.261,1.761,1.261a5.728,5.728,0,0,0,1.441-.26v-1.581a3.154,3.154,0,0,1-.56.04c-.42,0-.54-.22-.54-.781Zm2.462,7.626H28.9v-6.1a2.522,2.522,0,0,1,2.5-2.722c1.341,0,1.981.7,2.021,2.322v6.5H35.7v-7.105c0-2.322-1.421-3.523-3.663-3.523a3.706,3.706,0,0,0-3.222,1.841l-.04-.04v-1.521H26.615Zm10.448-8.646h1.721v6.1c.04,1.721.48,2.642,2.862,2.642.5,0,.981-.08,1.481-.12v-1.761a3.9,3.9,0,0,1-.961.08c-1.021,0-1.1-.48-1.1-1.421v-5.524h2.062v-1.7H41.065v-3.1H38.784v3.1H37.062Zm14.09,5.164c0,1.441-1.561,1.961-2.562,1.961-.8,0-2.1-.3-2.1-1.321,0-1.2.881-1.561,1.861-1.721a8.145,8.145,0,0,0,2.8-.62Zm2.282-4.143c0-2.182-2.122-3-4.143-3-2.282,0-4.543.781-4.7,3.443H46.87c.1-1.121,1-1.641,2.282-1.641.921,0,2.142.22,2.142,1.4,0,1.341-1.461,1.161-3.1,1.461-1.921.22-3.983.64-3.983,3.222,0,2.021,1.681,3.022,3.543,3.022a5.307,5.307,0,0,0,3.583-1.261c.18.941.841,1.261,1.761,1.261a5.728,5.728,0,0,0,1.441-.26v-1.581a3.154,3.154,0,0,1-.56.04c-.42,0-.54-.22-.54-.781Zm8.346,7.626h9.767v-2.162H64.282V-43.437h-2.5ZM82.036-39.494H79.754v6c0,1.6-.64,2.822-2.542,2.822-1.241,0-1.981-.66-1.981-2.482v-6.345H72.949v6.565c0,2.7,1.161,4.063,3.863,4.063a3.474,3.474,0,0,0,2.942-1.721h.04v1.441h2.242ZM93.7-36.031c-.22-2.542-2.262-3.743-4.663-3.743-3.4,0-5.1,2.442-5.1,5.564,0,3.042,1.781,5.344,5.024,5.344A4.455,4.455,0,0,0,93.7-33.029H91.423a2.458,2.458,0,0,1-2.462,2.362c-1.981,0-2.742-1.821-2.742-3.543,0-3.142,1.661-3.763,2.842-3.763a2.188,2.188,0,0,1,2.362,1.941Zm4.2,6.885V-39.494H95.626v10.348ZM95.265-40.915h1.661l2.842-2.862h-2.7Zm11.509,8.286c0,1.441-1.561,1.961-2.562,1.961-.8,0-2.1-.3-2.1-1.321,0-1.2.881-1.561,1.861-1.721a8.145,8.145,0,0,0,2.8-.62Zm2.282-4.143c0-2.182-2.122-3-4.143-3-2.282,0-4.543.781-4.7,3.443h2.282c.1-1.121,1-1.641,2.282-1.641.921,0,2.142.22,2.142,1.4,0,1.341-1.461,1.161-3.1,1.461-1.921.22-3.983.64-3.983,3.222,0,2.021,1.681,3.022,3.543,3.022a5.307,5.307,0,0,0,3.583-1.261c.18.941.841,1.261,1.761,1.261a5.728,5.728,0,0,0,1.441-.26v-1.581a3.154,3.154,0,0,1-.56.04c-.42,0-.54-.22-.54-.781Z" transform="translate(86.6 229.953)" fill="#fff"/></g></svg>