<svg xmlns="http://www.w3.org/2000/svg" width="14.19" height="21.27" viewBox="0 0 14.19 21.27"><path d="M0-25.635a7.09,7.09,0,0,0-7.1,7.1A7.26,7.26,0,0,0-6.135-15L0-4.365,6.135-15a7.26,7.26,0,0,0,.96-3.54A7.09,7.09,0,0,0,0-25.635Zm0,1.17A5.918,5.918,0,0,1,5.925-18.54a5.929,5.929,0,0,1-.81,2.955L0-6.72l-5.115-8.865a5.929,5.929,0,0,1-.81-2.955A5.918,5.918,0,0,1,0-24.465Zm0,8.94A3.028,3.028,0,0,0,3.03-18.54,3.031,3.031,0,0,0,0-21.57a3.028,3.028,0,0,0-3.015,3.03A3.006,3.006,0,0,0,0-15.525Zm0-1.17A1.844,1.844,0,0,1-1.845-18.54,1.857,1.857,0,0,1,0-20.4a1.869,1.869,0,0,1,1.86,1.86A1.857,1.857,0,0,1,0-16.695Z" transform="translate(7.095 25.635)" fill="#3483bb"/></svg>