<svg xmlns="http://www.w3.org/2000/svg" width="34.921" height="37.296" viewBox="0 0 34.921 37.296"><g transform="translate(0 8.668)"><g transform="translate(0)"><path d="M50.624,127.237a.89.89,0,0,0-1.4,1.095,1.051,1.051,0,0,1,0,1.294,19.546,19.546,0,0,1-8.164,6.156,9.958,9.958,0,0,0,.023-13.584,19.529,19.529,0,0,1,5.1,3.014c.191.157.382.319.567.484a.89.89,0,0,0,1.18-1.333c-.2-.179-.41-.356-.619-.527a21.373,21.373,0,0,0-30.4,3.4,2.828,2.828,0,0,0,0,3.483,21.373,21.373,0,0,0,33.721,0A2.828,2.828,0,0,0,50.624,127.237Zm-32.318,2.389a1.051,1.051,0,0,1,0-1.294,19.545,19.545,0,0,1,8.163-6.156,9.959,9.959,0,0,0,0,13.6A19.545,19.545,0,0,1,18.306,129.626Zm15.468,7.553h-.022a8.2,8.2,0,0,1,0-16.4h.019a8.2,8.2,0,0,1,0,16.4Z" transform="translate(-16.303 -118.999)" fill="#fff"/></g></g><g transform="translate(13.684 14.872)"><g transform="translate(0)"><path d="M207.937,204.16a3.776,3.776,0,1,0,3.776,3.776A3.78,3.78,0,0,0,207.937,204.16Zm0,5.773a2,2,0,1,1,2-2A2,2,0,0,1,207.937,209.933Z" transform="translate(-204.161 -204.16)" fill="#fff"/></g></g><g transform="translate(16.57)"><g transform="translate(0)"><path d="M244.674,0a.89.89,0,0,0-.89.89V4.227a.89.89,0,1,0,1.78,0V.89A.89.89,0,0,0,244.674,0Z" transform="translate(-243.784)" fill="#fff"/></g></g><g transform="translate(16.57 32.179)"><g transform="translate(0)"><path d="M244.674,441.753a.89.89,0,0,0-.89.89v3.337a.89.89,0,1,0,1.78,0v-3.337A.89.89,0,0,0,244.674,441.753Z" transform="translate(-243.784 -441.753)" fill="#fff"/></g></g><g transform="translate(27.467 5.201)"><g transform="translate(0)"><path d="M396.548,71.663a.89.89,0,0,0-1.259,0l-1.66,1.66a.89.89,0,0,0,1.259,1.259l1.661-1.66A.89.89,0,0,0,396.548,71.663Z" transform="translate(-393.369 -71.403)" fill="#fff"/></g></g><g transform="translate(4.014 28.654)"><path d="M74.583,393.629a.89.89,0,0,0-1.259,0l-1.661,1.66a.89.89,0,0,0,1.259,1.259l1.661-1.66A.89.89,0,0,0,74.583,393.629Z" transform="translate(-71.403 -393.369)" fill="#fff"/></g><g transform="translate(4.014 5.201)"><path d="M74.583,73.324l-1.661-1.661a.89.89,0,1,0-1.259,1.259l1.661,1.66a.89.89,0,1,0,1.259-1.259Z" transform="translate(-71.403 -71.403)" fill="#fff"/></g><g transform="translate(27.466 28.654)"><path d="M396.547,395.29l-1.66-1.66a.89.89,0,0,0-1.259,1.259l1.661,1.66a.89.89,0,1,0,1.259-1.259Z" transform="translate(-393.367 -393.369)" fill="#fff"/></g></svg>