<svg xmlns="http://www.w3.org/2000/svg" width="316.963" height="51.905" viewBox="0 0 316.963 51.905"><g transform="translate(-79.649 -210.998)"><g transform="translate(79.649 210.998)"><path d="M109.327,214.938a21.884,21.884,0,0,1,22.088,21.247h.115a25.952,25.952,0,0,0-51.881,0h7.626C87.392,224.431,97.219,214.938,109.327,214.938Z" transform="translate(-79.649 -210.998)" fill="#fff"/><path d="M101.852,268.17a21.884,21.884,0,0,1-22.088-21.247h-.115a25.952,25.952,0,0,0,51.881,0H123.9C123.787,258.677,113.959,268.17,101.852,268.17Z" transform="translate(-79.649 -220.206)" fill="#fff"/><g transform="translate(9.673 10.384)"><path d="M111.7,227.308c7.461,0,13.416,5.61,13.612,12.652h.071c-.12-8.378-7.164-15-15.974-15s-15.822,6.756-16,15h4.7C98.186,232.961,104.242,227.308,111.7,227.308Z" transform="translate(-92.85 -224.961)" fill="#fff"/><path d="M106.349,259.067a13.439,13.439,0,0,1-13.622-12.983h-.071a16.011,16.011,0,0,0,32,0h-4.7A13.37,13.37,0,0,1,106.349,259.067Z" transform="translate(-92.656 -230.375)" fill="#fff"/></g></g><text transform="translate(139.612 245.778)" fill="#fff" font-size="29" font-family="HelveticaNeueLTStd-Md, Helvetica Neue LT Std" font-weight="500"><tspan x="0" y="0">Clínica Santa Lucía</tspan></text></g></svg>